<mxfile host="app.diagrams.net" modified="2024-04-28T00:58:33.831Z" agent="Mozilla/5.0 (Windows NT 10.0; Win64; x64) AppleWebKit/537.36 (KHTML, like Gecko) Chrome/124.0.0.0 Safari/537.36" etag="3ErzPt3wj7lav6XzmacV" version="24.3.1" type="google">
  <diagram name="Page-1" id="lJFG1Riu_wWHaEm_lCvo">
    <mxGraphModel grid="1" page="1" gridSize="10" guides="1" tooltips="1" connect="1" arrows="1" fold="1" pageScale="1" pageWidth="827" pageHeight="1169" math="0" shadow="0">
      <root>
        <mxCell id="0" />
        <mxCell id="1" parent="0" />
        <mxCell id="Qt8PIKyiMsX9rQAeg67P-1" value="&lt;font style=&quot;font-size: 24px;&quot;&gt;&lt;b&gt;Patients&lt;/b&gt;&lt;/font&gt;" style="rounded=1;whiteSpace=wrap;html=1;fillColor=#CDA2BE;" vertex="1" parent="1">
          <mxGeometry x="-170" y="190" width="170" height="80" as="geometry" />
        </mxCell>
        <mxCell id="Qt8PIKyiMsX9rQAeg67P-2" value="&lt;font style=&quot;font-size: 18px;&quot;&gt;&lt;u&gt;Patient_ID&lt;/u&gt;&lt;/font&gt;" style="ellipse;whiteSpace=wrap;html=1;fillColor=#FFFFCC;" vertex="1" parent="1">
          <mxGeometry x="-413" y="380" width="120" height="80" as="geometry" />
        </mxCell>
        <mxCell id="Qt8PIKyiMsX9rQAeg67P-3" value="&lt;font style=&quot;font-size: 18px;&quot;&gt;Patient_Name&lt;/font&gt;" style="ellipse;whiteSpace=wrap;html=1;fillColor=#FFFFCC;" vertex="1" parent="1">
          <mxGeometry x="-460" y="280" width="150" height="80" as="geometry" />
        </mxCell>
        <mxCell id="Qt8PIKyiMsX9rQAeg67P-4" value="&lt;font style=&quot;font-size: 18px;&quot;&gt;Patient_Address&lt;/font&gt;" style="ellipse;whiteSpace=wrap;html=1;fillColor=#FFFFCC;" vertex="1" parent="1">
          <mxGeometry x="-440" y="160" width="150" height="80" as="geometry" />
        </mxCell>
        <mxCell id="Qt8PIKyiMsX9rQAeg67P-5" value="&lt;font style=&quot;font-size: 18px;&quot;&gt;Date_admitted&lt;/font&gt;" style="ellipse;whiteSpace=wrap;html=1;fillColor=#FFFFCC;" vertex="1" parent="1">
          <mxGeometry x="-460" y="60" width="140" height="80" as="geometry" />
        </mxCell>
        <mxCell id="Qt8PIKyiMsX9rQAeg67P-6" value="&lt;font style=&quot;font-size: 18px;&quot;&gt;Date_discharged&lt;/font&gt;" style="ellipse;whiteSpace=wrap;html=1;fillColor=#FFFFCC;" vertex="1" parent="1">
          <mxGeometry x="-460" y="-40" width="167" height="80" as="geometry" />
        </mxCell>
        <mxCell id="Qt8PIKyiMsX9rQAeg67P-7" value="&lt;font style=&quot;font-size: 18px;&quot;&gt;City&lt;/font&gt;" style="ellipse;whiteSpace=wrap;html=1;fillColor=#FFFFCC;" vertex="1" parent="1">
          <mxGeometry x="-660" y="230" width="120" height="80" as="geometry" />
        </mxCell>
        <mxCell id="Qt8PIKyiMsX9rQAeg67P-8" value="&lt;font style=&quot;font-size: 18px;&quot;&gt;Street&lt;/font&gt;" style="ellipse;whiteSpace=wrap;html=1;fillColor=#FFFFCC;" vertex="1" parent="1">
          <mxGeometry x="-670" y="130" width="120" height="80" as="geometry" />
        </mxCell>
        <mxCell id="Qt8PIKyiMsX9rQAeg67P-9" value="&lt;font style=&quot;font-size: 18px;&quot;&gt;Zip_code&lt;/font&gt;" style="ellipse;whiteSpace=wrap;html=1;fillColor=#FFFFCC;" vertex="1" parent="1">
          <mxGeometry x="-670" y="30" width="120" height="80" as="geometry" />
        </mxCell>
        <mxCell id="Qt8PIKyiMsX9rQAeg67P-10" value="&lt;font style=&quot;font-size: 18px;&quot;&gt;Patient_Gender&lt;/font&gt;" style="ellipse;whiteSpace=wrap;html=1;fillColor=#FFFFCC;" vertex="1" parent="1">
          <mxGeometry x="-340" y="-120" width="140" height="90" as="geometry" />
        </mxCell>
        <mxCell id="Qt8PIKyiMsX9rQAeg67P-11" value="&lt;font style=&quot;font-size: 18px;&quot;&gt;Room_NO&lt;/font&gt;" style="ellipse;whiteSpace=wrap;html=1;fillColor=#FFFFCC;" vertex="1" parent="1">
          <mxGeometry x="-190" y="-150" width="140" height="100" as="geometry" />
        </mxCell>
        <mxCell id="Qt8PIKyiMsX9rQAeg67P-12" value="&lt;font style=&quot;font-size: 18px;&quot;&gt;Problem&lt;/font&gt;" style="ellipse;whiteSpace=wrap;html=1;fillColor=#FFFFCC;" vertex="1" parent="1">
          <mxGeometry x="100" y="-140" width="120" height="80" as="geometry" />
        </mxCell>
        <mxCell id="Qt8PIKyiMsX9rQAeg67P-13" value="&lt;font style=&quot;font-size: 18px;&quot;&gt;Category&lt;/font&gt;" style="ellipse;whiteSpace=wrap;html=1;fillColor=#FFFFCC;" vertex="1" parent="1">
          <mxGeometry x="140" y="-50" width="120" height="80" as="geometry" />
        </mxCell>
        <mxCell id="Qt8PIKyiMsX9rQAeg67P-14" value="" style="endArrow=none;html=1;rounded=0;exitX=0.963;exitY=0.212;exitDx=0;exitDy=0;exitPerimeter=0;entryX=0;entryY=1;entryDx=0;entryDy=0;" edge="1" parent="1" source="Qt8PIKyiMsX9rQAeg67P-2" target="Qt8PIKyiMsX9rQAeg67P-1">
          <mxGeometry width="50" height="50" relative="1" as="geometry">
            <mxPoint x="-200" y="310" as="sourcePoint" />
            <mxPoint x="-150" y="260" as="targetPoint" />
          </mxGeometry>
        </mxCell>
        <mxCell id="Qt8PIKyiMsX9rQAeg67P-15" value="" style="endArrow=none;html=1;rounded=0;exitX=0.962;exitY=0.191;exitDx=0;exitDy=0;exitPerimeter=0;" edge="1" parent="1" source="Qt8PIKyiMsX9rQAeg67P-3">
          <mxGeometry width="50" height="50" relative="1" as="geometry">
            <mxPoint x="-220" y="290" as="sourcePoint" />
            <mxPoint x="-170" y="240" as="targetPoint" />
          </mxGeometry>
        </mxCell>
        <mxCell id="Qt8PIKyiMsX9rQAeg67P-16" value="" style="endArrow=none;html=1;rounded=0;entryX=1;entryY=0.5;entryDx=0;entryDy=0;" edge="1" parent="1" target="Qt8PIKyiMsX9rQAeg67P-4">
          <mxGeometry width="50" height="50" relative="1" as="geometry">
            <mxPoint x="-170" y="195" as="sourcePoint" />
            <mxPoint x="-120" y="145" as="targetPoint" />
          </mxGeometry>
        </mxCell>
        <mxCell id="Qt8PIKyiMsX9rQAeg67P-17" value="" style="endArrow=none;html=1;rounded=0;entryX=1.007;entryY=0.705;entryDx=0;entryDy=0;entryPerimeter=0;" edge="1" parent="1" target="Qt8PIKyiMsX9rQAeg67P-5">
          <mxGeometry width="50" height="50" relative="1" as="geometry">
            <mxPoint x="-150" y="190" as="sourcePoint" />
            <mxPoint x="-100" y="140" as="targetPoint" />
          </mxGeometry>
        </mxCell>
        <mxCell id="Qt8PIKyiMsX9rQAeg67P-18" value="" style="endArrow=none;html=1;rounded=0;entryX=1;entryY=1;entryDx=0;entryDy=0;" edge="1" parent="1" target="Qt8PIKyiMsX9rQAeg67P-6">
          <mxGeometry width="50" height="50" relative="1" as="geometry">
            <mxPoint x="-140" y="190" as="sourcePoint" />
            <mxPoint x="-90" y="140" as="targetPoint" />
          </mxGeometry>
        </mxCell>
        <mxCell id="Qt8PIKyiMsX9rQAeg67P-19" value="" style="endArrow=none;html=1;rounded=0;entryX=0.426;entryY=1.012;entryDx=0;entryDy=0;entryPerimeter=0;" edge="1" parent="1" target="Qt8PIKyiMsX9rQAeg67P-10">
          <mxGeometry width="50" height="50" relative="1" as="geometry">
            <mxPoint x="-100" y="190" as="sourcePoint" />
            <mxPoint x="-50" y="140" as="targetPoint" />
          </mxGeometry>
        </mxCell>
        <mxCell id="Qt8PIKyiMsX9rQAeg67P-20" value="" style="endArrow=none;html=1;rounded=0;entryX=0;entryY=1;entryDx=0;entryDy=0;" edge="1" parent="1" target="Qt8PIKyiMsX9rQAeg67P-11">
          <mxGeometry width="50" height="50" relative="1" as="geometry">
            <mxPoint x="-40" y="190" as="sourcePoint" />
            <mxPoint x="10" y="140" as="targetPoint" />
          </mxGeometry>
        </mxCell>
        <mxCell id="Qt8PIKyiMsX9rQAeg67P-21" value="" style="endArrow=none;html=1;rounded=0;entryX=0.036;entryY=0.641;entryDx=0;entryDy=0;entryPerimeter=0;" edge="1" parent="1" target="Qt8PIKyiMsX9rQAeg67P-12">
          <mxGeometry width="50" height="50" relative="1" as="geometry">
            <mxPoint x="-10" y="190" as="sourcePoint" />
            <mxPoint x="40" y="140" as="targetPoint" />
          </mxGeometry>
        </mxCell>
        <mxCell id="Qt8PIKyiMsX9rQAeg67P-22" value="" style="endArrow=none;html=1;rounded=0;entryX=0;entryY=0.5;entryDx=0;entryDy=0;" edge="1" parent="1" target="Qt8PIKyiMsX9rQAeg67P-13">
          <mxGeometry width="50" height="50" relative="1" as="geometry">
            <mxPoint y="230" as="sourcePoint" />
            <mxPoint x="50" y="180" as="targetPoint" />
          </mxGeometry>
        </mxCell>
        <mxCell id="Qt8PIKyiMsX9rQAeg67P-23" value="" style="endArrow=none;html=1;rounded=0;exitX=1.002;exitY=0.302;exitDx=0;exitDy=0;exitPerimeter=0;" edge="1" parent="1" source="Qt8PIKyiMsX9rQAeg67P-7">
          <mxGeometry width="50" height="50" relative="1" as="geometry">
            <mxPoint x="-480" y="270" as="sourcePoint" />
            <mxPoint x="-430" y="220" as="targetPoint" />
          </mxGeometry>
        </mxCell>
        <mxCell id="Qt8PIKyiMsX9rQAeg67P-24" value="" style="endArrow=none;html=1;rounded=0;exitX=1;exitY=0.5;exitDx=0;exitDy=0;" edge="1" parent="1" source="Qt8PIKyiMsX9rQAeg67P-8">
          <mxGeometry width="50" height="50" relative="1" as="geometry">
            <mxPoint x="-490" y="240" as="sourcePoint" />
            <mxPoint x="-440" y="190" as="targetPoint" />
          </mxGeometry>
        </mxCell>
        <mxCell id="Qt8PIKyiMsX9rQAeg67P-25" value="" style="endArrow=none;html=1;rounded=0;exitX=0;exitY=0;exitDx=0;exitDy=0;entryX=1;entryY=1;entryDx=0;entryDy=0;" edge="1" parent="1" source="Qt8PIKyiMsX9rQAeg67P-4" target="Qt8PIKyiMsX9rQAeg67P-9">
          <mxGeometry width="50" height="50" relative="1" as="geometry">
            <mxPoint x="-490" y="160" as="sourcePoint" />
            <mxPoint x="-440" y="110" as="targetPoint" />
          </mxGeometry>
        </mxCell>
        <mxCell id="Qt8PIKyiMsX9rQAeg67P-28" value="" style="endArrow=none;html=1;rounded=0;entryX=0;entryY=0.5;entryDx=0;entryDy=0;" edge="1" parent="1">
          <mxGeometry width="50" height="50" relative="1" as="geometry">
            <mxPoint y="240" as="sourcePoint" />
            <mxPoint x="170" y="95" as="targetPoint" />
          </mxGeometry>
        </mxCell>
        <mxCell id="Qt8PIKyiMsX9rQAeg67P-30" value="" style="ellipse;whiteSpace=wrap;html=1;fillColor=#FFFFCC;" vertex="1" parent="1">
          <mxGeometry x="170" y="50" width="150" height="90" as="geometry" />
        </mxCell>
        <mxCell id="Qt8PIKyiMsX9rQAeg67P-32" value="&lt;font style=&quot;font-size: 18px;&quot;&gt;Contact_NO&lt;/font&gt;" style="ellipse;whiteSpace=wrap;html=1;fillColor=#FFFFCC;" vertex="1" parent="1">
          <mxGeometry x="185" y="55" width="120" height="80" as="geometry" />
        </mxCell>
        <mxCell id="Qt8PIKyiMsX9rQAeg67P-35" value="&lt;font style=&quot;font-size: 24px;&quot;&gt;&lt;b&gt;Prescription&lt;/b&gt;&lt;/font&gt;" style="rounded=1;whiteSpace=wrap;html=1;fillColor=#CDA2BE;" vertex="1" parent="1">
          <mxGeometry x="850" y="210" width="170" height="70" as="geometry" />
        </mxCell>
        <mxCell id="Qt8PIKyiMsX9rQAeg67P-36" value="&lt;font style=&quot;font-size: 18px;&quot;&gt;&lt;u&gt;Pres_ID&lt;/u&gt;&lt;/font&gt;" style="ellipse;whiteSpace=wrap;html=1;fillColor=#FFFFCC;" vertex="1" parent="1">
          <mxGeometry x="840" y="-40" width="140" height="80" as="geometry" />
        </mxCell>
        <mxCell id="Qt8PIKyiMsX9rQAeg67P-38" value="&lt;font style=&quot;font-size: 18px;&quot;&gt;PresBY&lt;/font&gt;" style="ellipse;whiteSpace=wrap;html=1;fillColor=#FFFFCC;" vertex="1" parent="1">
          <mxGeometry x="1010" y="-20" width="140" height="80" as="geometry" />
        </mxCell>
        <mxCell id="Qt8PIKyiMsX9rQAeg67P-39" value="&lt;font style=&quot;font-size: 18px;&quot;&gt;Pres_Date&lt;/font&gt;" style="ellipse;whiteSpace=wrap;html=1;fillColor=#FFFFCC;" vertex="1" parent="1">
          <mxGeometry x="1130" y="55" width="140" height="80" as="geometry" />
        </mxCell>
        <mxCell id="Qt8PIKyiMsX9rQAeg67P-40" value="&lt;font style=&quot;font-size: 18px;&quot;&gt;Process&lt;/font&gt;" style="rhombus;whiteSpace=wrap;html=1;fillColor=#FFCCCC;" vertex="1" parent="1">
          <mxGeometry x="370" y="200" width="170" height="110" as="geometry" />
        </mxCell>
        <mxCell id="Qt8PIKyiMsX9rQAeg67P-41" value="" style="endArrow=none;html=1;rounded=0;entryX=0;entryY=0.5;entryDx=0;entryDy=0;" edge="1" parent="1" target="Qt8PIKyiMsX9rQAeg67P-40">
          <mxGeometry width="50" height="50" relative="1" as="geometry">
            <mxPoint y="250" as="sourcePoint" />
            <mxPoint x="50" y="200" as="targetPoint" />
          </mxGeometry>
        </mxCell>
        <mxCell id="Qt8PIKyiMsX9rQAeg67P-42" value="" style="endArrow=none;html=1;rounded=0;entryX=0.074;entryY=0.575;entryDx=0;entryDy=0;entryPerimeter=0;" edge="1" parent="1" target="Qt8PIKyiMsX9rQAeg67P-40">
          <mxGeometry width="50" height="50" relative="1" as="geometry">
            <mxPoint y="260" as="sourcePoint" />
            <mxPoint x="50" y="210" as="targetPoint" />
          </mxGeometry>
        </mxCell>
        <mxCell id="Qt8PIKyiMsX9rQAeg67P-43" value="" style="endArrow=none;html=1;rounded=0;entryX=0;entryY=0.5;entryDx=0;entryDy=0;" edge="1" parent="1" target="Qt8PIKyiMsX9rQAeg67P-35">
          <mxGeometry width="50" height="50" relative="1" as="geometry">
            <mxPoint x="540" y="250" as="sourcePoint" />
            <mxPoint x="590" y="200" as="targetPoint" />
          </mxGeometry>
        </mxCell>
        <mxCell id="Qt8PIKyiMsX9rQAeg67P-44" value="" style="endArrow=none;html=1;rounded=0;" edge="1" parent="1" source="Qt8PIKyiMsX9rQAeg67P-40">
          <mxGeometry width="50" height="50" relative="1" as="geometry">
            <mxPoint x="490" y="370" as="sourcePoint" />
            <mxPoint x="850" y="255" as="targetPoint" />
          </mxGeometry>
        </mxCell>
        <mxCell id="Qt8PIKyiMsX9rQAeg67P-45" value="&lt;font style=&quot;font-size: 18px;&quot;&gt;Drug_Contain&lt;/font&gt;" style="rhombus;whiteSpace=wrap;html=1;fillColor=#FFCCCC;" vertex="1" parent="1">
          <mxGeometry x="850" y="475" width="170" height="110" as="geometry" />
        </mxCell>
        <mxCell id="Qt8PIKyiMsX9rQAeg67P-46" value="&lt;font style=&quot;font-size: 24px;&quot;&gt;&lt;b&gt;Drugs&lt;/b&gt;&lt;/font&gt;" style="rounded=1;whiteSpace=wrap;html=1;fillColor=#CDA2BE;" vertex="1" parent="1">
          <mxGeometry x="860" y="800" width="170" height="70" as="geometry" />
        </mxCell>
        <mxCell id="Qt8PIKyiMsX9rQAeg67P-47" value="" style="endArrow=none;html=1;rounded=0;entryX=0.5;entryY=1;entryDx=0;entryDy=0;exitX=0.5;exitY=0;exitDx=0;exitDy=0;" edge="1" parent="1" source="Qt8PIKyiMsX9rQAeg67P-45" target="Qt8PIKyiMsX9rQAeg67P-35">
          <mxGeometry width="50" height="50" relative="1" as="geometry">
            <mxPoint x="930" y="460" as="sourcePoint" />
            <mxPoint x="980" y="410" as="targetPoint" />
          </mxGeometry>
        </mxCell>
        <mxCell id="Qt8PIKyiMsX9rQAeg67P-48" value="" style="endArrow=none;html=1;rounded=0;entryX=0.585;entryY=1.039;entryDx=0;entryDy=0;entryPerimeter=0;exitX=0.571;exitY=0.029;exitDx=0;exitDy=0;exitPerimeter=0;" edge="1" parent="1" source="Qt8PIKyiMsX9rQAeg67P-45" target="Qt8PIKyiMsX9rQAeg67P-35">
          <mxGeometry width="50" height="50" relative="1" as="geometry">
            <mxPoint x="940" y="460" as="sourcePoint" />
            <mxPoint x="990" y="410" as="targetPoint" />
          </mxGeometry>
        </mxCell>
        <mxCell id="Qt8PIKyiMsX9rQAeg67P-49" value="" style="endArrow=none;html=1;rounded=0;entryX=0.5;entryY=1;entryDx=0;entryDy=0;" edge="1" parent="1" target="Qt8PIKyiMsX9rQAeg67P-45">
          <mxGeometry width="50" height="50" relative="1" as="geometry">
            <mxPoint x="940" y="800" as="sourcePoint" />
            <mxPoint x="990" y="680" as="targetPoint" />
          </mxGeometry>
        </mxCell>
        <mxCell id="Qt8PIKyiMsX9rQAeg67P-50" value="&lt;font style=&quot;font-size: 18px;&quot;&gt;Drug_Name&lt;/font&gt;" style="ellipse;whiteSpace=wrap;html=1;fillColor=#FFFFCC;" vertex="1" parent="1">
          <mxGeometry x="660" y="1000" width="140" height="80" as="geometry" />
        </mxCell>
        <mxCell id="Qt8PIKyiMsX9rQAeg67P-51" value="&lt;font style=&quot;font-size: 18px;&quot;&gt;Purpose_of_Drug&lt;/font&gt;" style="ellipse;whiteSpace=wrap;html=1;fillColor=#FFFFCC;" vertex="1" parent="1">
          <mxGeometry x="827" y="1010" width="190" height="90" as="geometry" />
        </mxCell>
        <mxCell id="Qt8PIKyiMsX9rQAeg67P-52" value="&lt;font style=&quot;font-size: 18px;&quot;&gt;Manufacture_drug&lt;/font&gt;" style="ellipse;whiteSpace=wrap;html=1;fillColor=#FFFFCC;" vertex="1" parent="1">
          <mxGeometry x="1070" y="1000" width="170" height="100" as="geometry" />
        </mxCell>
        <mxCell id="Qt8PIKyiMsX9rQAeg67P-53" value="&lt;font style=&quot;font-size: 18px;&quot;&gt;&lt;u&gt;Drug_ID&lt;/u&gt;&lt;/font&gt;" style="ellipse;whiteSpace=wrap;html=1;fillColor=#FFFFCC;" vertex="1" parent="1">
          <mxGeometry x="540" y="900" width="140" height="80" as="geometry" />
        </mxCell>
        <mxCell id="Qt8PIKyiMsX9rQAeg67P-55" value="" style="endArrow=none;html=1;rounded=0;entryX=0;entryY=0.75;entryDx=0;entryDy=0;" edge="1" parent="1" target="Qt8PIKyiMsX9rQAeg67P-46">
          <mxGeometry width="50" height="50" relative="1" as="geometry">
            <mxPoint x="670" y="920" as="sourcePoint" />
            <mxPoint x="720" y="870" as="targetPoint" />
          </mxGeometry>
        </mxCell>
        <mxCell id="Qt8PIKyiMsX9rQAeg67P-56" value="" style="endArrow=none;html=1;rounded=0;entryX=0.067;entryY=1.039;entryDx=0;entryDy=0;entryPerimeter=0;" edge="1" parent="1" target="Qt8PIKyiMsX9rQAeg67P-46">
          <mxGeometry width="50" height="50" relative="1" as="geometry">
            <mxPoint x="770" y="1010" as="sourcePoint" />
            <mxPoint x="820" y="960" as="targetPoint" />
          </mxGeometry>
        </mxCell>
        <mxCell id="Qt8PIKyiMsX9rQAeg67P-57" value="" style="endArrow=none;html=1;rounded=0;entryX=0.5;entryY=1;entryDx=0;entryDy=0;" edge="1" parent="1" target="Qt8PIKyiMsX9rQAeg67P-46">
          <mxGeometry width="50" height="50" relative="1" as="geometry">
            <mxPoint x="940" y="1010" as="sourcePoint" />
            <mxPoint x="990" y="960" as="targetPoint" />
          </mxGeometry>
        </mxCell>
        <mxCell id="Qt8PIKyiMsX9rQAeg67P-58" value="" style="endArrow=none;html=1;rounded=0;entryX=0.881;entryY=1.022;entryDx=0;entryDy=0;entryPerimeter=0;" edge="1" parent="1" target="Qt8PIKyiMsX9rQAeg67P-46">
          <mxGeometry width="50" height="50" relative="1" as="geometry">
            <mxPoint x="1100" y="1010" as="sourcePoint" />
            <mxPoint x="1150" y="960" as="targetPoint" />
          </mxGeometry>
        </mxCell>
        <mxCell id="Qt8PIKyiMsX9rQAeg67P-59" value="" style="endArrow=none;html=1;rounded=0;entryX=0.667;entryY=0.97;entryDx=0;entryDy=0;entryPerimeter=0;" edge="1" parent="1" target="Qt8PIKyiMsX9rQAeg67P-36">
          <mxGeometry width="50" height="50" relative="1" as="geometry">
            <mxPoint x="930" y="210" as="sourcePoint" />
            <mxPoint x="980" y="160" as="targetPoint" />
          </mxGeometry>
        </mxCell>
        <mxCell id="Qt8PIKyiMsX9rQAeg67P-60" value="" style="endArrow=none;html=1;rounded=0;entryX=0.229;entryY=0.97;entryDx=0;entryDy=0;entryPerimeter=0;" edge="1" parent="1" target="Qt8PIKyiMsX9rQAeg67P-38">
          <mxGeometry width="50" height="50" relative="1" as="geometry">
            <mxPoint x="970" y="210" as="sourcePoint" />
            <mxPoint x="1020" y="160" as="targetPoint" />
          </mxGeometry>
        </mxCell>
        <mxCell id="Qt8PIKyiMsX9rQAeg67P-61" value="" style="endArrow=none;html=1;rounded=0;" edge="1" parent="1" target="Qt8PIKyiMsX9rQAeg67P-39">
          <mxGeometry width="50" height="50" relative="1" as="geometry">
            <mxPoint x="1020" y="220" as="sourcePoint" />
            <mxPoint x="1070" y="170" as="targetPoint" />
          </mxGeometry>
        </mxCell>
        <mxCell id="Qt8PIKyiMsX9rQAeg67P-62" value="&lt;font style=&quot;font-size: 18px;&quot;&gt;Contains&lt;/font&gt;" style="rhombus;whiteSpace=wrap;html=1;fillColor=#FFCCCC;" vertex="1" parent="1">
          <mxGeometry x="1330" y="770" width="170" height="110" as="geometry" />
        </mxCell>
        <mxCell id="Qt8PIKyiMsX9rQAeg67P-63" value="&lt;font style=&quot;font-size: 24px;&quot;&gt;&lt;b&gt;Pharmacy&lt;/b&gt;&lt;/font&gt;" style="rounded=1;whiteSpace=wrap;html=1;fillColor=#CDA2BE;" vertex="1" parent="1">
          <mxGeometry x="1740" y="800" width="170" height="70" as="geometry" />
        </mxCell>
        <mxCell id="Qt8PIKyiMsX9rQAeg67P-64" value="&lt;font style=&quot;font-size: 18px;&quot;&gt;&lt;u&gt;Pharmacy_ID&lt;/u&gt;&lt;/font&gt;" style="ellipse;whiteSpace=wrap;html=1;fillColor=#FFFFCC;" vertex="1" parent="1">
          <mxGeometry x="1898" y="570" width="170" height="100" as="geometry" />
        </mxCell>
        <mxCell id="Qt8PIKyiMsX9rQAeg67P-65" value="&lt;font style=&quot;font-size: 18px;&quot;&gt;Pharmacy_Name&lt;/font&gt;" style="ellipse;whiteSpace=wrap;html=1;fillColor=#FFFFCC;" vertex="1" parent="1">
          <mxGeometry x="2030" y="680" width="170" height="100" as="geometry" />
        </mxCell>
        <mxCell id="Qt8PIKyiMsX9rQAeg67P-70" value="&lt;font style=&quot;font-size: 18px;&quot;&gt;Pharmacy_Address&lt;/font&gt;" style="ellipse;whiteSpace=wrap;html=1;fillColor=#FFFFCC;" vertex="1" parent="1">
          <mxGeometry x="2050" y="830" width="187" height="100" as="geometry" />
        </mxCell>
        <mxCell id="Qt8PIKyiMsX9rQAeg67P-72" value="&lt;font style=&quot;font-size: 18px;&quot;&gt;City&lt;/font&gt;" style="ellipse;whiteSpace=wrap;html=1;fillColor=#FFFFCC;" vertex="1" parent="1">
          <mxGeometry x="2380" y="760" width="120" height="80" as="geometry" />
        </mxCell>
        <mxCell id="Qt8PIKyiMsX9rQAeg67P-73" value="&lt;font style=&quot;font-size: 18px;&quot;&gt;Street&lt;/font&gt;&lt;span style=&quot;color: rgba(0, 0, 0, 0); font-family: monospace; font-size: 0px; text-align: start; text-wrap: nowrap;&quot;&gt;%3CmxGraphModel%3E%3Croot%3E%3CmxCell%20id%3D%220%22%2F%3E%3CmxCell%20id%3D%221%22%20parent%3D%220%22%2F%3E%3CmxCell%20id%3D%222%22%20value%3D%22%26lt%3Bfont%20style%3D%26quot%3Bfont-size%3A%2018px%3B%26quot%3B%26gt%3BCity%26lt%3B%2Ffont%26gt%3B%22%20style%3D%22ellipse%3BwhiteSpace%3Dwrap%3Bhtml%3D1%3BfillColor%3D%23FFFFCC%3B%22%20vertex%3D%221%22%20parent%3D%221%22%3E%3CmxGeometry%20x%3D%222380%22%20y%3D%22760%22%20width%3D%22120%22%20height%3D%2280%22%20as%3D%22geometry%22%2F%3E%3C%2FmxCell%3E%3C%2Froot%3E%3C%2FmxGraphModel%3E&lt;/span&gt;" style="ellipse;whiteSpace=wrap;html=1;fillColor=#FFFFCC;" vertex="1" parent="1">
          <mxGeometry x="2420" y="870" width="120" height="80" as="geometry" />
        </mxCell>
        <mxCell id="Qt8PIKyiMsX9rQAeg67P-74" value="&lt;span style=&quot;font-size: 18px;&quot;&gt;Zip_Code&lt;/span&gt;" style="ellipse;whiteSpace=wrap;html=1;fillColor=#FFFFCC;" vertex="1" parent="1">
          <mxGeometry x="2290" y="970" width="120" height="80" as="geometry" />
        </mxCell>
        <mxCell id="Qt8PIKyiMsX9rQAeg67P-75" value="" style="ellipse;whiteSpace=wrap;html=1;fillColor=#FFFFCC;" vertex="1" parent="1">
          <mxGeometry x="1680" y="540" width="150" height="90" as="geometry" />
        </mxCell>
        <mxCell id="Qt8PIKyiMsX9rQAeg67P-76" value="&lt;font style=&quot;font-size: 18px;&quot;&gt;Contact_NO&lt;/font&gt;" style="ellipse;whiteSpace=wrap;html=1;fillColor=#FFFFCC;" vertex="1" parent="1">
          <mxGeometry x="1695" y="545" width="120" height="80" as="geometry" />
        </mxCell>
        <mxCell id="Qt8PIKyiMsX9rQAeg67P-78" value="" style="endArrow=none;html=1;rounded=0;" edge="1" parent="1" target="Qt8PIKyiMsX9rQAeg67P-75">
          <mxGeometry width="50" height="50" relative="1" as="geometry">
            <mxPoint x="1790" y="800" as="sourcePoint" />
            <mxPoint x="1840" y="750" as="targetPoint" />
          </mxGeometry>
        </mxCell>
        <mxCell id="Qt8PIKyiMsX9rQAeg67P-79" value="" style="endArrow=none;html=1;rounded=0;entryX=0;entryY=1;entryDx=0;entryDy=0;" edge="1" parent="1" target="Qt8PIKyiMsX9rQAeg67P-64">
          <mxGeometry width="50" height="50" relative="1" as="geometry">
            <mxPoint x="1870" y="800" as="sourcePoint" />
            <mxPoint x="1920" y="750" as="targetPoint" />
          </mxGeometry>
        </mxCell>
        <mxCell id="Qt8PIKyiMsX9rQAeg67P-80" value="" style="endArrow=none;html=1;rounded=0;" edge="1" parent="1" target="Qt8PIKyiMsX9rQAeg67P-65">
          <mxGeometry width="50" height="50" relative="1" as="geometry">
            <mxPoint x="1910" y="810" as="sourcePoint" />
            <mxPoint x="1960" y="760" as="targetPoint" />
          </mxGeometry>
        </mxCell>
        <mxCell id="Qt8PIKyiMsX9rQAeg67P-81" value="" style="endArrow=none;html=1;rounded=0;entryX=0;entryY=0.5;entryDx=0;entryDy=0;" edge="1" parent="1" target="Qt8PIKyiMsX9rQAeg67P-70">
          <mxGeometry width="50" height="50" relative="1" as="geometry">
            <mxPoint x="1910" y="860" as="sourcePoint" />
            <mxPoint x="1960" y="810" as="targetPoint" />
          </mxGeometry>
        </mxCell>
        <mxCell id="Qt8PIKyiMsX9rQAeg67P-82" value="" style="endArrow=none;html=1;rounded=0;entryX=0;entryY=0.5;entryDx=0;entryDy=0;" edge="1" parent="1" target="Qt8PIKyiMsX9rQAeg67P-72">
          <mxGeometry width="50" height="50" relative="1" as="geometry">
            <mxPoint x="2220" y="850" as="sourcePoint" />
            <mxPoint x="2270" y="800" as="targetPoint" />
          </mxGeometry>
        </mxCell>
        <mxCell id="Qt8PIKyiMsX9rQAeg67P-83" value="" style="endArrow=none;html=1;rounded=0;entryX=0;entryY=0.5;entryDx=0;entryDy=0;" edge="1" parent="1" target="Qt8PIKyiMsX9rQAeg67P-73">
          <mxGeometry width="50" height="50" relative="1" as="geometry">
            <mxPoint x="2240" y="880" as="sourcePoint" />
            <mxPoint x="2290" y="830" as="targetPoint" />
          </mxGeometry>
        </mxCell>
        <mxCell id="Qt8PIKyiMsX9rQAeg67P-84" value="" style="endArrow=none;html=1;rounded=0;entryX=0;entryY=0;entryDx=0;entryDy=0;" edge="1" parent="1" target="Qt8PIKyiMsX9rQAeg67P-74">
          <mxGeometry width="50" height="50" relative="1" as="geometry">
            <mxPoint x="2210" y="920" as="sourcePoint" />
            <mxPoint x="2260" y="870" as="targetPoint" />
          </mxGeometry>
        </mxCell>
        <mxCell id="Qt8PIKyiMsX9rQAeg67P-85" value="" style="endArrow=none;html=1;rounded=0;entryX=0.047;entryY=0.609;entryDx=0;entryDy=0;entryPerimeter=0;" edge="1" parent="1" target="Qt8PIKyiMsX9rQAeg67P-62">
          <mxGeometry width="50" height="50" relative="1" as="geometry">
            <mxPoint x="1030" y="840" as="sourcePoint" />
            <mxPoint x="1080" y="790" as="targetPoint" />
          </mxGeometry>
        </mxCell>
        <mxCell id="Qt8PIKyiMsX9rQAeg67P-86" value="" style="endArrow=none;html=1;rounded=0;entryX=0;entryY=0.5;entryDx=0;entryDy=0;" edge="1" parent="1" target="Qt8PIKyiMsX9rQAeg67P-62">
          <mxGeometry width="50" height="50" relative="1" as="geometry">
            <mxPoint x="1030" y="830" as="sourcePoint" />
            <mxPoint x="1080" y="780" as="targetPoint" />
          </mxGeometry>
        </mxCell>
        <mxCell id="Qt8PIKyiMsX9rQAeg67P-87" value="" style="endArrow=none;html=1;rounded=0;entryX=0;entryY=0.5;entryDx=0;entryDy=0;" edge="1" parent="1" target="Qt8PIKyiMsX9rQAeg67P-63">
          <mxGeometry width="50" height="50" relative="1" as="geometry">
            <mxPoint x="1500" y="830" as="sourcePoint" />
            <mxPoint x="1550" y="780" as="targetPoint" />
          </mxGeometry>
        </mxCell>
        <mxCell id="Qt8PIKyiMsX9rQAeg67P-88" value="&lt;font style=&quot;font-size: 24px;&quot;&gt;&lt;b&gt;1&lt;/b&gt;&lt;/font&gt;" style="text;html=1;align=center;verticalAlign=middle;whiteSpace=wrap;rounded=0;" vertex="1" parent="1">
          <mxGeometry x="260" y="280" width="60" height="30" as="geometry" />
        </mxCell>
        <mxCell id="Qt8PIKyiMsX9rQAeg67P-89" value="&lt;font style=&quot;font-size: 24px;&quot;&gt;&lt;b&gt;N&lt;/b&gt;&lt;/font&gt;" style="text;html=1;align=center;verticalAlign=middle;whiteSpace=wrap;rounded=0;" vertex="1" parent="1">
          <mxGeometry x="580" y="280" width="60" height="30" as="geometry" />
        </mxCell>
        <mxCell id="Qt8PIKyiMsX9rQAeg67P-90" value="&lt;font style=&quot;font-size: 24px;&quot;&gt;&lt;b&gt;N&lt;/b&gt;&lt;/font&gt;" style="text;html=1;align=center;verticalAlign=middle;whiteSpace=wrap;rounded=0;" vertex="1" parent="1">
          <mxGeometry x="860" y="430" width="60" height="30" as="geometry" />
        </mxCell>
        <mxCell id="Qt8PIKyiMsX9rQAeg67P-91" value="&lt;font style=&quot;font-size: 24px;&quot;&gt;&lt;b&gt;M&lt;/b&gt;&lt;/font&gt;" style="text;html=1;align=center;verticalAlign=middle;whiteSpace=wrap;rounded=0;" vertex="1" parent="1">
          <mxGeometry x="850" y="605" width="60" height="30" as="geometry" />
        </mxCell>
        <mxCell id="Qt8PIKyiMsX9rQAeg67P-92" value="&lt;font style=&quot;font-size: 24px;&quot;&gt;&lt;b&gt;M&lt;/b&gt;&lt;/font&gt;" style="text;html=1;align=center;verticalAlign=middle;whiteSpace=wrap;rounded=0;" vertex="1" parent="1">
          <mxGeometry x="1260" y="850" width="60" height="30" as="geometry" />
        </mxCell>
        <mxCell id="Qt8PIKyiMsX9rQAeg67P-93" value="&lt;font style=&quot;font-size: 24px;&quot;&gt;&lt;b&gt;1&lt;/b&gt;&lt;/font&gt;" style="text;html=1;align=center;verticalAlign=middle;whiteSpace=wrap;rounded=0;" vertex="1" parent="1">
          <mxGeometry x="1520" y="850" width="60" height="30" as="geometry" />
        </mxCell>
      </root>
    </mxGraphModel>
  </diagram>
</mxfile>
